<?xml version="1.0" standalone="no"?>
<!DOCTYPE svg PUBLIC "-//W3C//DTD SVG 20010904//EN"
 "http://www.w3.org/TR/2001/REC-SVG-20010904/DTD/svg10.dtd">
<svg version="1.0" xmlns="http://www.w3.org/2000/svg"
 width="1280.000000pt" height="777.000000pt" viewBox="0 0 1280.000000 777.000000"
 preserveAspectRatio="xMidYMid meet">
<metadata>
Created by potrace 1.15, written by Peter Selinger 2001-2017
</metadata>
<g transform="translate(0.000000,777.000000) scale(0.100000,-0.100000)"
fill="#000000" stroke="none">
<path d="M9978 7757 c-21 -7 -48 -21 -60 -32 -13 -11 -32 -25 -43 -30 -11 -6
-24 -27 -30 -48 -6 -23 -20 -43 -34 -50 -30 -15 -48 -66 -73 -202 -16 -90 -17
-119 -9 -160 6 -27 13 -62 16 -77 15 -95 126 -173 240 -169 121 5 153 18 180
75 18 38 17 97 -2 104 -7 2 -16 -5 -19 -15 -19 -59 -31 -77 -58 -94 -42 -26
-101 -23 -161 6 -27 14 -54 25 -60 25 -5 0 -24 24 -41 53 l-30 53 7 114 c8
126 25 186 80 272 41 64 159 143 174 117 4 -5 10 -7 15 -4 5 3 17 -3 27 -14
10 -10 32 -26 49 -34 18 -9 44 -31 58 -48 32 -38 140 -260 156 -321 21 -79 37
-127 60 -183 7 -16 14 -37 15 -45 5 -36 27 -100 34 -100 5 0 6 -10 4 -22 -2
-13 7 -70 22 -128 28 -113 34 -146 39 -200 1 -19 6 -46 10 -59 10 -28 14 -70
22 -216 4 -60 10 -114 14 -120 4 -5 5 -26 3 -47 -4 -32 -9 -37 -41 -44 -21 -5
-46 -9 -57 -10 -12 0 -39 -5 -60 -9 -22 -5 -44 -7 -48 -6 -18 4 -83 -24 -97
-42 -15 -17 -42 -24 -65 -17 -21 7 -65 -13 -71 -32 -3 -11 -12 -17 -19 -14 -8
3 -25 -10 -40 -30 -28 -36 -49 -43 -59 -19 -4 13 -9 12 -35 -3 -17 -9 -35 -27
-40 -39 -6 -13 -17 -23 -24 -23 -20 0 -95 -68 -114 -103 -8 -17 -29 -44 -44
-60 -16 -16 -29 -37 -29 -48 0 -10 -4 -19 -8 -19 -4 0 -14 -17 -21 -37 -8 -21
-19 -45 -26 -53 -20 -24 -35 -81 -36 -140 -1 -82 10 -205 21 -235 15 -40 12
-52 -15 -57 -27 -6 -43 6 -25 17 15 10 2 25 -36 41 -19 8 -34 19 -34 25 0 5
-5 7 -10 4 -6 -3 -13 0 -16 9 -6 16 -26 26 -67 31 -15 2 -37 11 -49 20 -13 8
-33 15 -45 15 -13 0 -23 4 -23 9 0 12 -102 11 -118 -2 -17 -14 -28 -1 -13 17
15 18 -1 30 -29 21 -10 -3 -29 -1 -41 6 -20 10 -59 11 -219 4 -71 -4 -89 -7
-170 -29 -30 -9 -56 -20 -58 -26 -2 -5 -14 -10 -26 -10 -20 0 -70 -28 -109
-60 -7 -6 -24 -19 -39 -31 -16 -11 -28 -30 -28 -41 0 -11 -8 -22 -20 -25 -10
-3 -22 -13 -25 -23 -3 -9 -14 -25 -25 -35 -11 -10 -20 -30 -20 -44 0 -14 -7
-39 -16 -56 -9 -16 -18 -52 -21 -80 -3 -27 -10 -53 -15 -56 -6 -4 -8 -23 -4
-45 3 -22 7 -52 7 -69 3 -72 28 -144 67 -187 13 -14 22 -31 18 -36 -3 -5 5
-20 18 -33 13 -13 30 -37 39 -54 16 -33 84 -105 135 -145 18 -14 47 -39 65
-56 68 -64 273 -174 363 -194 48 -11 68 -26 57 -43 -3 -4 -12 0 -20 10 -13 17
-14 17 -9 1 3 -10 1 -18 -5 -18 -6 0 -8 -4 -4 -9 3 -5 1 -12 -5 -16 -6 -3 -13
1 -16 9 -9 23 -21 20 -29 -6 -4 -14 -8 -18 -12 -10 -2 6 -11 12 -19 12 -25 0
-74 -30 -74 -45 0 -8 -9 -16 -20 -16 -35 -2 -38 -4 -58 -26 -11 -13 -24 -23
-30 -23 -11 0 -56 -37 -128 -105 -68 -65 -85 -184 -35 -253 24 -34 128 -102
163 -106 13 -1 30 -5 38 -9 63 -25 196 -49 253 -44 166 15 327 84 368 159 6
11 -19 2 -76 -27 -100 -51 -150 -63 -289 -71 -191 -11 -360 56 -407 162 -18
39 -18 46 -5 76 8 18 15 27 15 21 1 -7 10 -13 21 -13 22 0 27 -16 8 -23 -9 -3
-6 -12 10 -29 12 -13 22 -30 22 -36 0 -7 12 -12 26 -12 17 0 23 -4 18 -12 -5
-10 -4 -10 6 -1 11 10 16 9 27 -5 10 -11 16 -13 19 -6 7 16 46 5 40 -11 -2 -7
4 -15 14 -18 11 -3 21 1 24 10 5 12 10 11 32 -6 32 -25 71 -27 96 -4 17 15 18
15 18 0 0 -20 26 -23 33 -4 4 10 7 10 18 0 16 -15 85 -17 94 -3 4 6 11 8 16 4
6 -3 17 2 24 12 8 11 14 14 15 7 0 -18 48 -6 100 26 8 5 31 16 51 25 37 16 61
37 58 52 -4 23 3 32 20 27 21 -5 35 29 18 46 -8 8 -7 11 3 11 9 0 6 8 -10 24
l-23 25 26 6 c18 5 23 12 20 26 -3 11 -14 19 -25 19 -11 0 -18 5 -16 12 9 27
-35 45 -108 45 -39 0 -77 3 -83 7 -13 9 -77 -2 -111 -19 -26 -13 -54 -10 -45
5 3 5 12 7 19 4 8 -3 20 3 27 13 8 10 28 19 44 20 102 8 141 16 152 33 7 11
21 18 31 18 60 -2 138 16 155 36 18 21 18 21 12 0 -5 -18 -2 -20 25 -16 27 4
35 12 31 35 0 4 4 7 9 7 17 0 11 -47 -6 -54 -10 -4 -14 -12 -10 -23 4 -10 -2
-24 -14 -35 -13 -12 -19 -26 -15 -38 3 -11 0 -22 -8 -27 -23 -13 -34 -45 -31
-86 2 -24 -1 -35 -7 -31 -7 4 -9 -3 -7 -18 1 -14 -3 -32 -10 -41 -7 -8 -12
-19 -11 -23 1 -5 0 -13 -1 -19 -4 -12 -9 -85 -13 -175 -3 -82 9 -161 25 -171
11 -7 11 -12 0 -29 -10 -17 -9 -23 7 -37 11 -9 18 -20 15 -25 -3 -4 2 -11 10
-14 20 -8 21 -30 1 -38 -20 -7 -19 -33 2 -45 10 -5 15 -12 11 -16 -8 -9 11
-65 30 -87 8 -10 12 -18 8 -18 -3 0 4 -19 16 -42 12 -24 23 -47 23 -53 1 -5 3
-15 3 -22 1 -6 20 -34 42 -62 22 -28 40 -57 40 -65 0 -8 17 -33 38 -55 20 -22
42 -46 47 -54 6 -8 19 -27 30 -42 23 -33 25 -85 11 -294 l-8 -134 63 56 c34
31 67 57 72 57 6 0 7 -19 3 -46 -6 -47 7 -88 38 -113 14 -12 16 -10 16 15 0
15 5 65 12 111 11 78 14 83 44 98 47 22 48 19 14 -28 -19 -28 -31 -56 -32 -80
-2 -45 9 -59 24 -32 13 24 86 94 154 149 26 21 93 60 149 87 55 27 108 59 119
72 10 12 21 22 25 22 13 0 97 54 115 74 11 12 29 21 42 21 38 0 262 166 338
251 67 74 120 174 121 226 1 26 8 50 20 63 23 26 49 27 42 1 -3 -14 2 -21 20
-25 13 -4 21 -11 18 -16 -3 -6 3 -10 14 -10 10 0 22 6 24 13 3 6 6 2 6 -10 1
-19 -5 -22 -46 -25 l-48 -4 43 -19 c23 -10 42 -24 42 -31 0 -7 6 -11 13 -8 8
3 56 -6 108 -19 83 -21 105 -23 188 -16 76 6 107 14 165 43 125 60 184 135
196 248 13 117 -10 206 -98 379 -1 4 20 9 48 13 120 16 400 142 464 209 17 18
49 46 71 62 22 16 42 32 45 36 3 3 14 9 25 13 33 10 144 189 180 291 9 28 20
57 23 65 12 31 14 58 15 165 0 101 -2 117 -31 190 -51 128 -151 210 -270 220
-134 13 -182 14 -187 6 -3 -6 -21 -7 -39 -4 -66 10 -374 -60 -421 -96 -12 -9
-55 -21 -55 -15 0 2 13 16 28 31 18 18 27 35 24 48 -4 17 -2 18 12 6 9 -7 16
-10 17 -5 7 90 6 130 -4 136 -9 5 -9 10 1 20 9 9 15 8 27 -8 13 -16 16 -17 24
-4 6 8 8 25 5 37 -4 14 0 29 10 38 15 16 22 59 18 115 -1 14 -4 66 -6 115 -7
119 -7 118 -21 135 -7 8 -13 26 -13 40 0 41 -19 80 -37 74 -12 -5 -14 0 -10
22 5 23 -3 40 -37 85 -73 94 -86 110 -95 108 -21 -4 -34 2 -31 15 4 19 -80 96
-104 96 -10 0 -18 5 -18 10 0 6 -7 10 -16 10 -8 0 -12 5 -9 10 3 6 2 10 -4 10
-5 0 -17 7 -26 17 -13 12 -19 13 -24 4 -6 -9 -11 -8 -21 4 -7 8 -19 15 -26 15
-8 0 -14 9 -14 20 0 16 -9 21 -51 26 -29 4 -60 15 -70 25 -40 40 -145 70 -199
58 -8 -2 -14 1 -13 7 3 15 -42 27 -67 19 -11 -3 -29 1 -42 9 -32 21 -163 32
-183 16 -9 -8 -15 -8 -15 -2 0 6 -28 11 -67 12 -38 0 -80 1 -95 2 -28 1 -43
21 -31 40 12 20 12 232 0 240 -6 4 -8 10 -4 14 3 4 15 1 24 -7 15 -11 16 -11
6 1 -18 19 -16 28 4 32 15 3 14 6 -6 25 -19 18 -21 24 -11 43 10 18 9 22 -9
27 -11 3 -18 9 -15 14 3 5 9 7 14 4 13 -8 23 14 13 28 -5 7 -8 27 -6 45 1 17
-1 32 -6 32 -5 0 -8 8 -6 18 1 9 -2 25 -6 34 -5 10 -5 19 0 23 11 6 -31 55
-48 55 -7 0 -10 4 -6 10 3 5 12 7 19 4 8 -3 17 -1 21 5 3 6 1 11 -5 11 -7 0
-9 8 -5 19 3 10 -1 38 -10 62 -8 24 -15 55 -15 69 0 14 -7 36 -15 50 -8 14
-14 35 -15 48 0 12 -3 22 -7 22 -5 0 -9 12 -9 28 -1 15 -9 45 -20 67 -10 22
-18 45 -19 50 -3 20 -31 87 -52 128 -8 16 -12 31 -9 34 3 3 -3 20 -13 37 -10
17 -21 43 -25 57 -3 15 -17 37 -31 50 -13 13 -25 27 -25 31 0 17 -76 118 -92
124 -10 3 -18 10 -18 15 0 5 -9 9 -20 9 -11 0 -20 3 -20 8 0 30 -118 48 -182
29z m682 -1750 c8 -3 76 -8 150 -10 129 -5 229 -23 315 -57 17 -7 37 -13 45
-14 32 -3 334 -148 345 -166 4 -6 -19 2 -52 18 -219 109 -515 174 -798 175
-142 1 -172 -2 -270 -26 -155 -39 -297 -109 -360 -179 -82 -90 -126 -217 -140
-403 -10 -129 35 -270 125 -391 40 -53 116 -110 160 -121 14 -3 48 -27 75 -54
40 -39 72 -57 150 -88 191 -74 215 -84 211 -88 -12 -13 -235 44 -281 71 -11 7
-42 21 -70 31 -111 41 -269 175 -375 317 -19 26 -41 48 -48 48 -7 0 -15 8 -18
18 -3 9 -16 42 -29 72 -60 141 -65 157 -56 186 5 16 14 55 21 87 16 77 78 200
135 265 99 111 244 197 420 247 82 23 135 43 174 64 16 8 147 7 171 -2z
m-1495 -767 c132 -25 229 -50 250 -64 14 -9 35 -16 48 -16 13 0 33 -10 45 -23
11 -12 45 -35 75 -51 109 -57 311 -246 381 -357 16 -25 42 -55 58 -65 25 -17
42 -44 18 -29 -15 9 -13 2 16 -50 15 -25 33 -49 41 -52 8 -3 12 -12 9 -19 -3
-7 0 -16 6 -20 19 -12 0 58 -22 81 -11 12 -20 30 -20 41 0 10 -7 28 -15 38 -8
10 -12 23 -9 28 4 5 -2 19 -13 31 -35 41 -64 87 -54 87 5 0 25 -13 43 -30 18
-16 37 -30 42 -30 5 0 31 -20 58 -46 55 -51 138 -94 185 -94 17 0 33 -4 35
-10 2 -5 46 -16 98 -25 99 -16 177 -12 207 10 14 11 25 10 58 -3 51 -19 50
-19 36 -36 -11 -12 -6 -16 25 -22 20 -4 44 -3 52 3 11 6 36 4 79 -8 137 -38
304 -44 433 -14 14 3 19 3 12 -1 -7 -3 -20 -20 -29 -37 -9 -18 -18 -26 -20
-20 -5 14 -73 -32 -73 -50 0 -5 -8 -16 -17 -23 -13 -9 -14 -13 -5 -14 8 0 27
14 42 30 15 17 35 30 43 30 8 0 20 7 27 15 7 8 16 12 21 9 5 -3 32 14 60 37
43 36 54 41 70 31 14 -9 17 -9 13 2 -3 8 13 22 43 38 26 14 47 30 45 37 -3 14
50 3 60 -12 8 -12 41 11 33 23 -2 4 2 16 10 26 13 17 14 18 15 2 0 -10 5 -18
10 -18 6 0 9 6 8 13 -2 6 5 11 14 9 12 -2 20 6 24 24 6 24 8 25 19 11 15 -21
29 -21 45 -3 6 8 18 12 26 9 8 -3 14 0 14 6 0 6 6 8 14 5 7 -3 20 1 27 8 19
18 98 48 112 42 7 -2 27 9 45 26 37 33 47 37 39 15 -7 -16 8 -30 17 -16 3 5
28 9 55 9 27 0 64 4 82 10 44 13 235 9 274 -6 70 -28 124 -58 129 -72 3 -8 15
-28 26 -45 11 -16 22 -37 26 -45 3 -8 10 -26 16 -40 15 -34 18 -137 6 -177 -5
-17 -10 -54 -10 -82 -1 -32 -6 -52 -15 -55 -7 -3 -13 -14 -13 -24 0 -10 -11
-39 -25 -63 -14 -24 -32 -59 -40 -76 -8 -18 -19 -33 -24 -33 -5 0 -12 -11 -15
-25 -4 -14 -11 -25 -16 -25 -5 0 -35 -24 -67 -53 -60 -54 -157 -127 -171 -127
-4 0 -13 -9 -20 -20 -7 -11 -23 -20 -36 -20 -12 0 -31 -9 -41 -20 -10 -11 -23
-20 -28 -20 -6 0 -21 -10 -34 -21 -17 -17 -25 -19 -36 -10 -14 11 -41 7 -65
-12 -7 -5 -29 -11 -50 -13 -20 -2 -56 -8 -79 -15 -23 -6 -47 -9 -55 -7 -17 6
103 44 162 52 25 4 56 13 70 21 48 27 109 55 119 55 6 0 18 8 28 18 10 10 42
37 71 61 28 24 52 47 52 53 0 5 23 31 50 58 28 27 50 57 50 66 0 10 8 26 18
37 12 14 16 33 15 69 -2 40 1 49 12 44 12 -4 15 8 15 67 0 78 -13 137 -38 175
-9 14 -17 32 -18 40 -7 42 -137 132 -192 132 -14 0 -40 10 -60 22 -30 18 -40
20 -74 11 -31 -8 -46 -8 -69 4 -18 9 -44 13 -67 10 -80 -12 -118 -20 -131 -30
-7 -6 -29 -12 -50 -12 -58 -2 -253 -89 -292 -131 -13 -14 -45 -42 -71 -61 -27
-19 -48 -41 -48 -49 0 -8 -4 -14 -10 -14 -5 0 -10 -11 -10 -24 0 -14 -4 -28
-10 -31 -6 -4 -10 6 -10 22 -1 26 -1 27 -12 8 -6 -11 -24 -35 -38 -53 -17 -21
-26 -41 -23 -53 3 -10 9 -16 14 -13 5 3 9 1 9 -4 0 -16 -13 -22 -27 -11 -15
13 -17 1 -3 -21 9 -12 15 -9 40 20 16 19 25 36 19 38 -5 2 -5 12 2 23 5 11 15
17 20 13 6 -3 21 4 33 15 13 12 29 19 37 16 14 -5 95 65 115 100 10 17 13 18
27 6 14 -11 18 -11 23 3 7 19 58 48 68 39 9 -10 47 29 42 44 -3 7 -1 15 4 18
6 4 10 2 10 -4 0 -6 14 -17 30 -26 35 -18 39 -35 8 -35 -24 0 -108 -38 -119
-54 -4 -5 -14 -6 -23 -3 -9 4 -16 2 -16 -3 0 -6 6 -10 12 -10 23 0 -48 -61
-88 -75 -24 -8 -38 -19 -38 -29 1 -11 -6 -16 -22 -16 -13 0 -24 -5 -24 -11 0
-6 -8 -8 -19 -4 -21 6 -53 -21 -77 -67 -8 -16 -18 -28 -23 -28 -5 0 -7 -8 -4
-19 3 -10 0 -22 -5 -25 -6 -3 -13 7 -17 23 -3 16 -13 35 -21 42 -8 6 -14 15
-14 19 0 13 -131 140 -143 140 -7 0 -20 13 -29 30 -16 28 -81 64 -102 57 -6
-2 -15 2 -21 9 -5 7 -28 14 -50 15 -22 2 -44 6 -50 10 -5 3 -35 10 -65 13 -30
4 -72 10 -93 13 -23 3 -43 0 -52 -7 -11 -9 -15 -9 -15 -1 0 6 -9 11 -19 11
-11 0 -22 4 -25 9 -5 8 -18 6 -81 -9 -5 -1 -13 -1 -17 0 -5 1 -25 2 -45 3 -28
0 -41 -5 -48 -19 -10 -18 -11 -18 -37 9 -15 15 -22 27 -17 27 6 0 7 5 3 11 -9
16 -29 -7 -29 -34 0 -16 -6 -21 -20 -19 -11 2 -23 9 -27 15 -8 12 -12 -13 -9
-42 2 -7 -2 -10 -8 -6 -6 3 -11 12 -11 20 0 19 -27 26 -34 8 -4 -8 -13 -13
-21 -9 -8 3 -15 0 -15 -7 0 -9 -2 -9 -8 0 -5 8 -13 9 -22 3 -8 -5 -11 -12 -7
-16 9 -9 -62 -46 -74 -39 -11 7 -31 -59 -23 -78 3 -10 3 -17 0 -17 -4 0 -11
11 -16 25 -11 28 -30 34 -30 9 0 -10 -6 -14 -14 -11 -17 7 -62 -26 -70 -51 -4
-9 -22 -27 -41 -40 -19 -12 -35 -29 -35 -36 0 -8 -9 -18 -21 -21 -14 -5 -19
-13 -16 -26 4 -13 0 -19 -11 -19 -25 -1 -74 -77 -66 -102 5 -16 3 -20 -9 -15
-10 3 -17 -1 -20 -14 -4 -15 -11 -18 -36 -13 -26 5 -31 3 -31 -12 -1 -18 -1
-18 -14 -1 -7 9 -21 17 -30 17 -9 0 -16 5 -16 10 0 6 -13 10 -29 10 -17 0 -33
-4 -36 -10 -10 -16 -25 -12 -25 7 0 13 -3 14 -12 5 -15 -15 -48 -16 -48 -1 0
8 -4 8 -14 0 -14 -12 -46 -5 -46 10 0 8 8 10 52 13 20 1 37 16 18 16 -22 0 0
15 23 16 12 1 30 5 40 9 12 5 22 2 30 -9 12 -16 14 -16 31 3 10 11 24 17 32
14 8 -3 21 7 31 26 10 17 23 29 28 28 21 -8 91 40 127 87 20 28 35 53 33 56
-3 4 1 21 7 38 9 24 9 38 -3 69 -18 45 -15 70 7 52 11 -9 14 -8 14 3 0 28 -21
76 -36 82 -10 4 -14 16 -13 33 2 16 0 34 -4 41 -5 6 -4 12 1 12 6 0 12 -7 16
-15 7 -18 42 -20 49 -2 3 8 7 6 12 -7 5 -11 3 -21 -6 -27 -9 -5 -10 -9 -2 -9
6 0 19 -3 28 -7 14 -5 16 -2 10 18 -11 33 -48 79 -60 75 -18 -6 -48 22 -42 38
4 9 -7 26 -28 45 -21 18 -32 36 -29 45 4 10 -8 23 -33 39 -21 13 -46 34 -57
45 -10 12 -31 24 -47 27 -27 6 -46 26 -47 50 -1 6 -8 12 -17 13 -9 2 -33 15
-52 28 -20 13 -40 24 -45 24 -5 0 -7 4 -4 9 3 5 -7 11 -22 14 -15 3 -35 9 -44
12 -13 5 -18 2 -18 -9 0 -9 -4 -16 -10 -16 -5 0 -10 7 -10 16 0 27 -31 84 -46
84 -8 0 -14 4 -14 9 0 5 10 7 21 4 16 -4 20 -2 17 8 -3 8 -14 14 -25 14 -12 0
-24 3 -28 7 -15 14 -26 -4 -13 -20 11 -13 10 -14 -15 -8 -15 3 -26 3 -25 -1 3
-9 -5 -13 -27 -13 -8 0 -15 7 -15 15 0 8 -9 15 -19 15 -11 0 -23 9 -26 20 -3
11 -9 20 -13 20 -15 -1 -52 -39 -52 -54 0 -9 -7 -16 -16 -16 -12 0 -15 7 -12
30 7 50 -48 80 -77 42 -13 -17 -45 -5 -46 17 0 12 -3 11 -16 -6 -19 -29 -33
-29 -33 -2 0 17 -4 20 -22 15 -13 -3 -33 -6 -46 -6 -16 0 -22 -5 -20 -17 2
-13 -4 -18 -22 -20 -71 -7 -90 -11 -104 -22 -8 -7 -20 -10 -25 -6 -6 3 -13 -6
-17 -20 -7 -27 -24 -35 -24 -11 0 14 58 65 114 100 34 22 150 56 188 56 15 0
29 4 32 8 6 10 186 5 251 -8z m560 -170 c3 -5 1 -10 -4 -10 -6 0 -11 5 -11 10
0 6 2 10 4 10 3 0 8 -4 11 -10z m-730 -69 c61 -4 120 -3 133 1 16 5 22 4 22
-7 0 -9 21 -20 58 -30 81 -23 81 -23 34 -24 -23 -1 -59 -8 -79 -16 -20 -9 -42
-14 -49 -11 -6 2 -24 -5 -40 -15 -16 -11 -39 -24 -51 -29 -13 -5 -23 -18 -23
-28 0 -20 -57 -67 -62 -52 -5 17 -48 -20 -48 -41 0 -10 -5 -19 -10 -19 -7 0
-8 -13 -4 -35 5 -30 4 -34 -10 -29 -20 8 -21 -8 -2 -44 7 -15 16 -40 20 -55 6
-24 3 -30 -14 -34 -23 -6 -24 -17 -10 -60 7 -20 22 -34 45 -43 20 -8 35 -21
35 -30 0 -32 175 -131 202 -114 4 3 15 -2 24 -10 8 -9 24 -16 34 -16 10 0 22
-5 26 -11 3 -6 17 -9 30 -6 13 2 25 0 26 -5 2 -4 27 -11 55 -15 66 -7 89 -29
41 -38 -21 -4 -56 1 -98 14 -36 12 -73 21 -83 21 -22 0 -150 67 -216 113 -25
17 -52 32 -60 32 -8 0 -19 8 -25 18 -18 30 -84 97 -96 97 -5 0 -20 16 -32 35
-13 19 -31 35 -40 35 -22 0 -34 20 -18 30 8 5 9 10 1 14 -6 4 -24 50 -40 104
-39 130 -36 200 11 249 22 23 41 33 62 33 17 0 47 9 66 19 19 10 44 17 55 14
11 -4 70 -9 130 -12z m-478 -25 c-19 -50 -18 -56 15 -87 18 -18 25 -29 16 -26
-9 3 -19 1 -22 -6 -3 -8 -12 -3 -26 13 -15 17 -23 21 -27 12 -2 -6 -9 -10 -13
-7 -10 6 10 69 31 103 13 21 34 20 26 -2z m-41 -198 c-32 -18 12 -174 64 -224
16 -16 30 -39 30 -51 0 -13 9 -32 20 -43 11 -11 20 -29 20 -40 0 -12 10 -25
25 -32 14 -6 25 -15 25 -19 0 -5 14 -15 30 -24 17 -9 30 -20 30 -26 0 -6 17
-26 37 -45 31 -29 38 -32 45 -19 12 20 30 8 23 -15 -7 -21 42 -65 111 -99 63
-32 48 -37 -17 -7 -69 33 -83 42 -139 96 -26 25 -80 74 -121 110 -63 57 -169
196 -169 223 0 5 -7 23 -14 40 -27 59 -45 202 -30 241 5 12 11 7 25 -21 16
-31 17 -38 5 -45z m855 31 c15 -7 24 -7 33 1 10 8 15 7 20 -5 3 -8 14 -15 25
-15 11 0 21 -9 25 -23 3 -15 21 -31 48 -43 44 -20 148 -114 148 -134 0 -12
-41 -4 -51 11 -9 15 -112 30 -154 23 -22 -3 -55 -15 -74 -26 -19 -10 -57 -25
-85 -32 -35 -9 -54 -20 -61 -34 -5 -12 -15 -22 -21 -22 -20 0 -22 -46 -2 -70
10 -13 16 -25 14 -28 -11 -10 -120 53 -162 93 -38 36 -44 47 -44 84 0 36 6 48
43 86 43 45 222 145 259 145 11 0 28 -5 39 -11z m1449 -274 c0 -8 -4 -15 -10
-15 -5 0 -10 7 -10 15 0 8 5 15 10 15 6 0 10 -7 10 -15z m1197 -23 c1 -26 -3
-32 -19 -32 -15 0 -18 4 -13 18 5 9 8 25 9 35 1 30 21 12 23 -21z m-92 -2 c8
-12 -19 -40 -37 -39 -10 0 -10 2 0 6 6 2 10 9 6 14 -6 11 3 29 16 29 5 0 12
-5 15 -10z m35 -21 c0 -5 -4 -9 -10 -9 -5 0 -10 7 -10 16 0 8 5 12 10 9 6 -3
10 -10 10 -16z m140 1 c0 -5 -7 -10 -15 -10 -8 0 -15 5 -15 10 0 6 7 10 15 10
8 0 15 -4 15 -10z m30 -5 c0 -8 -4 -15 -10 -15 -5 0 -10 7 -10 15 0 8 5 15 10
15 6 0 10 -7 10 -15z m95 -15 c31 -14 43 -16 54 -7 12 10 12 9 3 -10 -7 -13
-8 -24 -3 -27 5 -4 11 0 13 6 3 7 22 14 44 15 21 1 50 5 64 9 23 7 23 6 10 -8
-9 -8 -25 -18 -37 -22 -33 -11 -38 -36 -6 -36 21 0 23 -2 13 -15 -14 -17 -7
-65 15 -109 14 -26 14 -31 0 -46 -8 -9 -12 -20 -8 -23 3 -4 1 -7 -5 -7 -7 0
-12 -9 -12 -20 0 -11 -4 -20 -10 -20 -5 0 -10 -9 -10 -21 0 -11 -14 -32 -30
-46 -29 -24 -30 -26 -13 -39 16 -12 17 -13 1 -14 -27 0 -29 15 -7 66 27 60 29
153 5 209 -21 49 -79 110 -128 136 -41 21 -49 32 -20 27 9 -2 16 3 15 10 -4
16 4 15 52 -8z m-2613 -27 c17 -18 30 -34 27 -37 -7 -6 -223 21 -249 32 l-25
10 35 16 c23 10 60 15 107 14 68 -2 75 -4 105 -35z m1117 -20 c12 3 24 1 27
-4 3 -5 23 -9 45 -9 21 0 39 -4 39 -10 0 -5 9 -10 20 -10 11 0 29 -6 40 -12
17 -11 22 -10 30 2 7 11 11 9 19 -13 6 -15 8 -34 5 -42 -4 -9 0 -15 9 -15 8 0
17 9 20 20 6 24 22 26 31 4 3 -8 2 -12 -3 -9 -5 3 -12 2 -15 -3 -9 -15 28 -10
48 7 18 15 18 15 7 -6 -12 -23 -15 -51 -5 -40 10 9 32 -16 27 -30 -5 -11 8
-17 29 -14 3 0 19 -14 35 -32 15 -17 31 -33 35 -35 4 -1 15 -5 24 -9 9 -3 25
-1 35 5 15 10 17 9 13 -3 -4 -8 -16 -17 -28 -20 -166 -34 -175 -34 -228 13
-64 55 -137 99 -204 124 -78 28 -258 31 -352 5 -92 -25 -203 -73 -273 -119
-34 -21 -75 -40 -91 -40 -21 -1 -30 -7 -34 -25 -5 -17 -10 -21 -17 -14 -7 7
-6 15 2 25 7 8 9 21 5 27 -5 9 -2 10 9 6 10 -3 17 -3 17 1 0 11 163 138 187
146 12 4 24 13 27 21 3 9 18 15 34 15 16 0 35 7 42 15 7 8 19 15 26 15 8 0 14
4 14 9 0 6 8 10 18 9 9 0 53 9 96 21 44 12 103 21 132 21 29 0 56 5 60 11 5 8
9 8 14 -1 4 -7 17 -10 29 -7z m1383 -63 c6 0 8 -11 4 -25 -6 -23 14 -59 33
-60 3 0 15 -6 26 -13 16 -9 17 -13 6 -21 -7 -5 -11 -14 -7 -20 4 -5 -3 -44
-15 -85 -18 -63 -26 -77 -50 -86 -15 -7 -30 -18 -33 -26 -3 -8 -12 -14 -20
-14 -8 0 -17 -6 -19 -12 -3 -7 -6 0 -6 15 -2 61 -30 98 -100 131 -62 29 -72
31 -179 30 l-112 -1 22 24 c12 12 27 23 34 23 7 0 26 11 42 25 17 14 37 23 44
20 8 -3 21 1 28 10 7 8 21 15 31 15 11 0 19 7 19 15 0 20 41 36 57 23 17 -13
63 -1 80 20 10 14 14 15 22 3 7 -11 13 -11 32 3 13 9 30 14 37 11 8 -3 18 -5
24 -5z m-2952 -286 c0 -11 -5 -14 -16 -10 -9 3 -20 6 -25 6 -6 0 -7 5 -4 10
10 16 45 12 45 -6z m2613 8 c43 9 51 7 92 -17 58 -34 66 -62 31 -115 -40 -60
-134 -100 -235 -100 -42 0 -89 0 -104 0 -16 0 -26 4 -22 9 3 6 -6 13 -20 17
-22 5 -24 10 -19 38 4 28 88 127 103 123 20 -5 81 17 96 33 10 11 21 16 24 11
4 -6 24 -6 54 1z m-1766 -8 c-3 -3 -12 -4 -19 -1 -8 3 -5 6 6 6 11 1 17 -2 13
-5z m-647 -54 c0 -5 -4 -10 -10 -10 -5 0 -10 5 -10 10 0 6 5 10 10 10 6 0 10
-4 10 -10z m490 -166 c-53 -84 -57 -87 -38 -33 11 32 78 122 85 115 2 -2 -19
-39 -47 -82z m1390 56 c0 -5 -5 -10 -11 -10 -5 0 -7 5 -4 10 3 6 8 10 11 10 2
0 4 -4 4 -10z m-2121 -170 c-22 -29 -22 -30 -4 -50 10 -11 29 -20 42 -20 13 0
33 -5 44 -10 14 -8 25 -6 44 6 23 15 28 15 71 -2 37 -14 52 -15 75 -7 16 6 29
8 29 3 0 -22 -14 -40 -30 -40 -10 0 -20 -4 -22 -10 -2 -6 -13 -4 -28 3 -20 11
-31 11 -58 0 -18 -8 -47 -14 -65 -14 -29 -1 -44 1 -112 15 -11 2 -49 10 -85
17 -60 11 -79 22 -80 42 0 4 8 7 18 7 24 1 52 24 52 45 0 13 3 15 13 6 8 -6
17 -7 21 -3 6 5 81 39 94 41 1 1 -7 -12 -19 -29z m2217 -12 c1 -18 3 -42 4
-53 2 -11 -1 -29 -5 -39 -6 -14 -5 -17 3 -12 8 5 12 0 12 -13 0 -12 -6 -21
-14 -21 -15 0 -16 -16 -2 -38 5 -8 4 -18 -2 -24 -7 -7 -12 5 -16 38 -4 27 -11
77 -16 110 -13 83 -13 84 13 84 18 0 22 -6 23 -32z m234 -53 c4 3 36 -2 70
-11 35 -9 89 -14 124 -12 l61 3 -1 -32 c-2 -28 1 -33 21 -33 15 0 34 -13 52
-37 39 -50 75 -113 79 -138 23 -142 24 -167 13 -207 -34 -129 -135 -228 -233
-228 -31 0 -36 3 -36 23 1 20 2 20 11 5 14 -25 27 -22 60 13 15 16 37 31 48
32 11 0 25 11 32 24 7 13 18 23 25 23 19 0 27 19 14 35 -9 11 -7 12 8 9 24 -7
40 13 48 61 5 31 2 42 -12 52 -16 12 -16 13 -1 13 18 0 21 45 4 67 -5 7 -7 20
-3 28 3 9 0 15 -9 15 -17 0 -20 25 -5 35 15 9 0 35 -22 35 -14 0 -18 5 -13 19
9 29 -35 72 -66 64 -21 -6 -22 -4 -11 9 10 13 10 17 -2 21 -7 3 -18 1 -24 -5
-7 -7 -12 -4 -16 8 -8 25 -55 47 -72 33 -8 -7 -14 -6 -17 3 -4 10 -8 10 -15
-1 -9 -12 -13 -12 -26 1 -15 15 -37 15 -76 1 -8 -4 -18 -5 -22 -5 -19 4 -73
-37 -76 -56 -2 -12 -8 -22 -13 -22 -10 0 -12 141 -3 176 l6 22 45 -24 c24 -13
48 -22 53 -19z m63 -222 c5 -8 17 -11 33 -7 31 8 67 -15 101 -67 33 -50 34
-132 2 -160 -10 -9 -19 -23 -20 -30 0 -10 -2 -11 -6 -2 -3 10 -12 9 -36 -4
-18 -9 -38 -18 -45 -19 -7 -1 -24 -9 -37 -18 -13 -9 -30 -13 -38 -10 -8 3 -17
-3 -21 -13 -6 -14 -9 -15 -16 -3 -7 11 -16 12 -44 3 -20 -6 -36 -7 -36 -2 0 5
-11 9 -24 9 -30 0 -74 22 -91 47 -11 15 -9 27 8 73 20 53 21 54 30 29 12 -31
55 -59 92 -59 14 0 24 -4 21 -9 -6 -9 49 -33 57 -25 2 3 22 7 43 9 22 3 49 16
65 31 25 24 25 27 14 61 -7 20 -20 42 -29 48 -9 7 -16 23 -16 36 l-1 24 -22
-28 c-13 -15 -38 -32 -57 -37 -39 -11 -36 -13 -45 23 -6 22 -2 32 22 54 16 16
35 38 41 50 13 24 40 22 55 -4z m69 -438 c4 -31 1 -35 -19 -35 -22 0 -23 1
-10 28 8 15 12 33 9 41 -2 8 0 11 6 7 5 -3 12 -22 14 -41z m-205 -17 c-3 -7
-5 -2 -5 12 0 14 2 19 5 13 2 -7 2 -19 0 -25z m-42 12 c3 -5 1 -10 -4 -10 -6
0 -11 5 -11 10 0 6 2 10 4 10 3 0 8 -4 11 -10z"/>
<path d="M9174 5145 c-3 -8 -3 -19 1 -25 11 -18 25 -11 25 15 0 27 -17 34 -26
10z"/>
<path d="M9357 5057 c-3 -8 7 -12 27 -13 17 0 40 -4 51 -9 18 -8 18 -7 5 6
-21 21 -77 32 -83 16z"/>
<path d="M9560 4955 c0 -8 4 -15 10 -15 5 0 7 7 4 15 -4 8 -8 15 -10 15 -2 0
-4 -7 -4 -15z"/>
<path d="M10405 4499 c-4 -6 -4 -13 -1 -16 3 -4 6 -1 6 5 0 6 8 13 18 15 15 4
15 5 0 6 -9 0 -20 -4 -23 -10z"/>
<path d="M10310 4491 c0 -5 5 -13 10 -16 6 -3 10 -2 10 4 0 5 -4 13 -10 16 -5
3 -10 2 -10 -4z"/>
<path d="M10875 4350 c-16 -7 -17 -9 -3 -9 9 -1 20 4 23 9 7 11 7 11 -20 0z"/>
<path d="M12072 7503 c-126 -77 -175 -128 -307 -323 -44 -64 -115 -197 -115
-214 0 -9 -4 -16 -8 -16 -9 0 -30 -40 -68 -125 -27 -62 -94 -258 -94 -276 0
-9 -7 -29 -14 -45 -8 -16 -17 -45 -19 -64 -2 -19 -7 -42 -10 -50 -6 -16 -27
-108 -47 -203 -9 -43 -9 -61 0 -72 8 -10 8 -14 -2 -17 -14 -5 -20 -88 -7 -88
12 0 20 35 13 54 -3 9 -1 16 5 16 6 0 11 9 11 19 0 11 5 21 11 23 5 2 10 22
11 46 0 23 4 45 9 48 5 3 9 15 9 28 0 12 5 27 12 34 8 8 8 15 -1 26 -11 12 -7
16 22 21 34 7 46 29 20 39 -7 3 -13 10 -13 15 0 6 6 8 13 5 15 -5 21 32 6 41
-17 11 -9 23 13 17 18 -4 20 -2 16 16 -4 12 -2 22 4 22 6 0 7 7 4 16 -3 8 -2
12 4 9 6 -4 10 5 10 20 0 14 7 39 15 56 16 30 16 63 1 88 -7 10 -4 12 13 6 15
-5 21 -2 21 9 0 9 4 16 10 16 5 0 15 19 21 43 14 50 58 145 70 153 5 3 9 14 9
25 0 10 4 19 8 19 10 0 52 85 52 105 0 8 4 15 9 15 5 0 17 17 26 38 10 20 24
45 33 55 8 9 11 17 6 17 -5 0 4 11 19 25 15 14 27 32 27 39 0 8 11 21 24 29
12 9 31 32 40 51 9 20 21 34 26 31 5 -3 11 3 15 13 3 11 23 27 45 37 22 10 40
22 40 27 0 17 100 43 157 41 32 -1 114 -43 111 -56 -2 -7 9 -28 25 -48 28 -37
34 -59 17 -59 -13 0 -13 -33 0 -46 6 -6 6 -23 -1 -48 -6 -21 -8 -44 -5 -52 6
-15 -20 -101 -38 -124 -6 -8 -25 -41 -41 -73 -18 -35 -45 -68 -68 -84 -21 -15
-46 -36 -55 -48 -25 -31 -142 -76 -201 -78 -62 -1 -83 16 -111 89 -19 51 -19
56 -4 94 17 43 53 74 97 85 33 9 26 25 -11 25 -76 0 -159 -102 -149 -183 7
-54 49 -113 100 -139 54 -29 162 -31 225 -5 56 23 147 90 169 125 9 15 32 45
51 66 75 85 117 224 110 357 -9 154 -75 251 -180 264 -29 3 -70 4 -91 2 -21
-2 -40 0 -43 4 -8 14 -17 11 -82 -28z"/>
<path d="M1880 4172 c0 -57 6 -62 82 -62 64 0 232 -34 324 -66 39 -13 75 -24
80 -24 13 0 46 82 37 91 -31 30 -295 94 -435 105 l-88 7 0 -51z"/>
<path d="M1214 4081 c-125 -54 -334 -176 -334 -194 0 -7 13 -27 28 -45 l28
-34 80 50 c96 59 215 120 302 153 55 21 62 27 57 46 -11 46 -25 73 -37 73 -7
0 -63 -22 -124 -49z"/>
<path d="M2830 3785 l-33 -34 56 -61 c63 -68 139 -186 183 -284 16 -36 34 -66
40 -66 23 0 84 31 84 43 0 21 -100 209 -144 272 -49 67 -134 165 -145 165 -4
0 -22 -16 -41 -35z"/>
<path d="M406 3431 c-77 -105 -195 -306 -198 -340 -3 -19 5 -27 40 -42 l42
-18 35 70 c50 97 108 191 176 281 l58 77 -35 31 c-19 16 -39 30 -44 30 -4 0
-38 -40 -74 -89z"/>
<path d="M5873 3390 c4 -18 7 -42 7 -54 0 -19 4 -21 55 -18 104 7 298 -32 421
-84 10 -4 44 62 44 85 0 11 -84 45 -180 71 -52 15 -118 23 -214 27 l-139 6 6
-33z"/>
<path d="M5234 3182 c-100 -67 -237 -176 -284 -226 l-24 -27 36 -36 37 -36 63
59 c77 72 195 161 277 210 34 20 61 38 61 41 0 15 -43 83 -53 83 -6 0 -57 -31
-113 -68z"/>
<path d="M6787 2949 l-37 -31 34 -47 c72 -99 116 -213 131 -343 l7 -58 49 0
49 0 0 48 c0 67 -24 169 -58 251 -29 68 -117 211 -130 211 -4 -1 -24 -14 -45
-31z"/>
<path d="M3253 2848 c-30 -6 -43 -14 -43 -26 0 -16 64 -325 91 -439 13 -57 18
-60 80 -43 l36 10 -28 123 c-16 67 -41 182 -55 255 -15 72 -30 132 -33 131 -3
-1 -25 -5 -48 -11z"/>
<path d="M11 2539 c-10 -29 -9 -30 36 -50 25 -11 47 -18 48 -17 8 10 25 48 25
56 0 9 -70 42 -89 42 -5 0 -14 -14 -20 -31z"/>
<path d="M4547 2428 c-69 -125 -167 -354 -167 -392 0 -12 87 -44 94 -35 1 2
17 45 36 94 18 50 62 148 99 220 36 71 67 133 69 137 3 6 -67 58 -79 58 -3 0
-26 -37 -52 -82z"/>
<path d="M6645 1926 c-49 -51 -134 -125 -187 -165 l-97 -73 26 -39 c14 -21 30
-39 36 -39 38 0 387 312 387 345 0 11 -62 66 -72 65 -2 -1 -43 -43 -93 -94z"/>
<path d="M3550 1848 c-19 -12 -37 -23 -38 -24 -7 -4 59 -96 126 -177 59 -71
181 -184 224 -208 13 -7 23 0 47 32 l30 41 -72 57 c-83 66 -160 149 -220 238
-23 34 -46 62 -52 63 -5 0 -26 -10 -45 -22z"/>
<path d="M9828 1593 c-40 -49 -118 -134 -172 -191 l-100 -103 38 -37 37 -37
92 95 c85 88 233 258 251 287 6 12 -48 72 -66 73 -4 0 -40 -39 -80 -87z"/>
<path d="M4338 1493 c-37 -4 -38 -5 -38 -46 0 -56 17 -167 36 -247 19 -77 72
-217 84 -225 11 -7 93 33 88 43 -20 48 -60 163 -57 167 3 2 41 -2 84 -10 44
-9 144 -18 223 -22 l142 -6 0 51 0 52 -49 0 c-71 0 -242 18 -343 36 l-87 16
-5 36 c-3 21 -8 65 -12 100 -4 38 -10 61 -17 60 -7 -1 -29 -3 -49 -5z"/>
<path d="M5775 1408 c-60 -21 -162 -52 -225 -69 -63 -16 -120 -31 -126 -33 -9
-3 -9 -17 -1 -50 8 -37 15 -46 31 -46 43 0 466 127 485 145 7 8 -32 95 -43 94
-6 -1 -60 -19 -121 -41z"/>
<path d="M9135 934 c-35 -29 -302 -209 -358 -242 l-39 -22 23 -38 c12 -20 25
-40 28 -44 11 -13 442 271 441 291 -1 3 -15 23 -33 43 l-32 37 -30 -25z"/>
<path d="M4786 579 c-14 -17 -26 -34 -26 -39 0 -10 52 -52 140 -111 71 -47
285 -159 305 -159 10 0 45 66 45 85 0 2 -57 33 -128 69 -70 36 -164 92 -210
125 -45 34 -86 61 -91 61 -5 0 -21 -14 -35 -31z"/>
<path d="M8180 397 c-52 -21 -156 -59 -230 -83 -74 -25 -140 -47 -147 -49 -16
-5 10 -89 29 -93 25 -5 455 144 480 167 4 3 -3 27 -15 52 l-22 45 -95 -39z"/>
<path d="M5745 198 c-2 -7 -8 -30 -14 -50 -9 -38 -9 -38 27 -47 89 -24 480
-86 488 -79 1 2 4 25 5 52 l3 50 -154 22 c-142 20 -289 47 -333 60 -9 3 -19
-1 -22 -8z"/>
<path d="M7229 146 c-5 -5 -310 -35 -394 -38 l-60 -3 -3 -40 c-4 -67 -4 -67
169 -55 156 11 346 34 356 43 2 3 1 26 -2 51 -7 42 -10 46 -34 46 -15 0 -30
-2 -32 -4z"/>
</g>
</svg>
